ply
format ascii 1.0
comment Created by Blender 2.79 (sub 0) - www.blender.org, source file: ''
element vertex 54
property float x
property float y
property float z
element face 80
property list uchar uint vertex_indices
end_header
-0.000066 -0.390521 0.027546
-0.000208 -0.390526 0.030128
0.000321 -0.387974 0.029556
0.000073 -0.388206 0.027303
0.001103 -0.390749 0.032593
0.000013 -0.390660 0.032779
0.000894 -0.390649 0.030080
0.001041 -0.390589 0.027543
0.000601 -0.386237 0.028740
0.000297 -0.385957 0.026990
0.000543 -0.384659 0.028137
0.000550 -0.383106 0.027481
0.000596 -0.384124 0.026569
0.000439 -0.385294 0.029269
0.000399 -0.383562 0.028949
0.001173 -0.388330 0.027224
0.000197 -0.382367 0.030231
0.001374 -0.382160 0.030616
0.000983 -0.381231 0.032068
-0.000121 -0.381265 0.031961
0.000343 -0.381615 0.028688
0.000541 -0.381106 0.026796
0.000561 -0.388142 0.032136
0.000872 -0.391034 0.035797
0.000648 -0.388806 0.035015
0.000403 -0.386650 0.030097
0.000319 -0.386799 0.030878
0.000253 -0.385400 0.030906
0.000231 -0.383869 0.030506
0.000174 -0.385986 0.032659
-0.000324 -0.386787 0.035472
-0.000102 -0.383720 0.032445
-0.000386 -0.383743 0.034954
0.001792 -0.390940 0.035184
0.001915 -0.381401 0.029071
0.001378 -0.386129 0.026809
0.001393 -0.388234 0.029433
0.001655 -0.384336 0.026314
0.001921 -0.384877 0.027926
0.001654 -0.386492 0.028500
0.002616 -0.381030 0.026986
0.002216 -0.383235 0.027405
0.002411 -0.383472 0.029241
0.002234 -0.385386 0.029286
0.001666 -0.388238 0.032172
0.001973 -0.386884 0.030005
0.001879 -0.385265 0.031309
0.002246 -0.386891 0.031130
0.001229 -0.385823 0.032963
0.001702 -0.388550 0.034785
0.001635 -0.383693 0.030923
0.000980 -0.383639 0.032674
0.000751 -0.386533 0.035370
0.000716 -0.383833 0.034854
4 0 1 2 3
4 4 5 1 6
4 1 0 7 6
4 3 2 8 9
4 9 10 11 12
4 10 9 8 13
4 10 13 14 11
4 0 7 15 3
4 16 17 18 19
4 11 14 20 21
4 1 5 22 2
4 5 23 24 22
4 2 25 13 8
4 25 2 22 26
4 25 26 27 13
4 13 27 28 14
4 26 22 29 27
4 22 24 30 29
4 27 29 31 28
4 29 30 32 31
4 14 28 16 20
4 28 31 19 16
4 33 23 5 4
4 20 34 17 16
4 3 9 35 15
4 2 3 15 36
4 9 12 37 35
4 9 10 38 35
4 8 9 35 39
4 20 34 40 21
4 11 12 37 41
4 10 11 41 38
4 11 21 40 41
4 14 11 41 42
4 13 10 38 43
4 1 2 36 6
4 5 22 44 4
4 2 8 39 36
4 2 25 45 36
4 22 2 36 44
4 8 13 43 39
4 25 13 43 45
4 27 13 43 46
4 13 14 42 43
4 26 25 45 47
4 22 26 47 44
4 22 29 48 44
4 24 22 44 49
4 26 27 46 47
4 29 27 46 48
4 27 28 50 46
4 29 31 51 48
4 30 29 48 52
4 14 20 34 42
4 28 14 42 50
4 31 28 50 51
4 28 16 17 50
4 31 19 18 51
4 32 31 51 53
4 7 6 36 15
4 15 36 39 35
4 35 38 41 37
4 38 35 39 43
4 38 43 42 41
4 41 42 34 40
4 6 4 44 36
4 4 33 49 44
4 36 45 43 39
4 45 36 44 47
4 45 47 46 43
4 43 46 50 42
4 47 44 48 46
4 44 49 52 48
4 46 48 51 50
4 48 52 53 51
4 42 50 17 34
4 50 51 18 17
4 24 23 33 49
4 24 49 52 30
4 52 30 32 53
